<?xml version="1.0" encoding="utf-8"?>
<!-- Generator: Adobe Illustrator 24.1.0, SVG Export Plug-In . SVG Version: 6.00 Build 0)  -->
<svg version="1.1" id="Layer_1" xmlns="http://www.w3.org/2000/svg" xmlns:xlink="http://www.w3.org/1999/xlink" x="0px" y="0px"
	 viewBox="0 0 210.3 233" style="enable-background:new 0 0 210.3 233;" xml:space="preserve">
<style type="text/css">
	.st0{fill:#000;}
</style>
<g>
	<path class="st0" d="M96.9,49.2c8.4-1.4,10.1-1.4,18.1,0.1c12.4,2.3,22,7.2,30.3,15.6c21.4,21.5,22.8,54.3,3.2,77.8l-5.2,6.2v7.6
		c0,4.1,0.3,7.5,0.6,7.5c1.8,0,12-9,16.2-14.4c8.5-10.6,13.3-22.1,15.2-36c4.8-34.6-19.9-69.4-54.7-77.2
		c-10.1-2.2-28.3-1.6-36.5,1.3c-24,8.5-41.3,26.8-47.6,50.2c-2.4,8.7-2.4,25.3-0.1,34c3.8,14.4,13,29.2,23.4,37.5l0.4,0.1
		c3.1,2.5,6,4.5,6.4,4.5c0.4,0,0.7-3.4,0.7-7.6v-7.6l-5.2-6.2C42.6,119.2,44,86.2,65.5,64.9C74.3,56.2,84.2,51.3,96.9,49.2z"/>
	<path class="st0" d="M209.1,87.2c-4.4-22.2-13-39-28.3-54.9C160.7,11.3,134.3,0,105.1,0c-29.5,0-56,11.5-76.6,33.2
		C14.2,48.2,5.6,65.2,1.1,87c-1.7,8.1-1.4,29.2,0.4,38c7.2,34.2,27,59.9,57.9,75.1l0.5,0.4c5.4,2.6,10.5,4.8,11.2,4.8
		c1.1,0,1.2-1.3,0.7-5.8c-0.8-7.4-1.7-8.9-5.9-10.7c-1.9-0.8-6.5-3.4-10.3-5.9c-19.4-12.5-34.2-33.5-39.9-56.4
		c-2.3-9.4-2.3-32.3,0-41.7c8.6-34.6,36.8-62.1,70.9-69.1c9.9-2,27.7-2,37.5,0c33.7,7,61.2,33.2,70.3,66.9
		c2.9,10.6,3.2,33.5,0.6,43.8c-4.1,16.5-13,32.2-25.1,44.2c-7,7-18.4,15.1-25.1,17.9c-4.2,1.8-5.1,3.3-6,10.7
		c-0.5,4.6-0.4,5.8,0.7,5.8c3,0,21.6-10,29.2-15.8c21.3-16.1,35.9-40,40.5-66.2C210.6,114.7,210.6,94.6,209.1,87.2z"/>
	<path class="st0" d="M94.6,74.7c-8.8,4.7-13.9,12.7-13.9,21.8c0.1,7.9,3,14.3,8.4,18.7c4.5,4.5,10.7,7.3,17.6,7.3
		c13.8,0,24.9-11.2,24.9-24.9c0-13.1-10.1-23.8-22.9-24.9C103.8,72.1,98.3,72.8,94.6,74.7z"/>
	<path class="st0" d="M130.6,143.3c-1-2-2.6-3.7-4.8-5.3c-0.3-0.2-0.5-0.4-0.8-0.6c-4.6-3.8-11.5-5.9-20-5.9
		c-12.5,0-21.4,4.4-24.6,12.1c-2.5,5.8-1.5,24.1,2.7,53.8c2.6,18.3,4.4,25.7,8.4,29.6c0.6,0.8,1.4,1.6,2.2,2.2
		c2.2,1.8,5.2,2.7,7.5,3.2s4,0.5,5.8,0.5c1.8,0,3.7,0,5.8-0.5c2.1-0.5,4.3-1.4,6.2-2.9c1.9-1.5,3.6-3.6,4.9-6.8
		c1.3-3.1,2.3-7.3,3.7-16.9c1.4-9.5,3.2-24.5,4.1-34.6c0.9-10.2,0.9-15.7,0.7-19.6C132.1,147.7,131.6,145.3,130.6,143.3z"/>
</g>
</svg>
