<?xml version="1.0" encoding="utf-8"?>
<!-- Generator: Adobe Illustrator 24.1.0, SVG Export Plug-In . SVG Version: 6.00 Build 0)  -->
<svg version="1.1"
	 id="svg2" xmlns:cc="http://creativecommons.org/ns#" xmlns:dc="http://purl.org/dc/elements/1.1/" xmlns:inkscape="http://www.inkscape.org/namespaces/inkscape" xmlns:rdf="http://www.w3.org/1999/02/22-rdf-syntax-ns#" xmlns:sodipodi="http://sodipodi.sourceforge.net/DTD/sodipodi-0.dtd" xmlns:svg="http://www.w3.org/2000/svg"
	 xmlns="http://www.w3.org/2000/svg" xmlns:xlink="http://www.w3.org/1999/xlink" x="0px" y="0px" viewBox="0 0 144.2 106.7"
	 style="enable-background:new 0 0 144.2 106.7;" xml:space="preserve">
<style type="text/css">
	.st0{fill:#fff;}
</style>
<path id="path2" inkscape:connector-curvature="0" class="st0" d="M39.5,0C17.7,0,0,17.7,0,39.5c0,13.6,8.9,23.6,17.7,32.8
	l35.8,33.6c1.8,1.8,4.8,0.4,4.8-2.2V77.4c0-7.7,6.3-13.6,13.6-13.6c7.7,0,13.6,6.3,13.6,13.6v26.2c0,2.6,3,4.1,4.8,2.2l35.8-33.6
	c9.2-9.2,17.7-19.2,17.7-32.8c0.7-21.8-17-39.5-38.7-39.5l0,0C91.5,0,79.3,7.4,72.3,17.7C65.3,7.4,53.1,0,39.5,0L39.5,0z M29.9,12.2
	c0.7,0,1.8,0.4,2.2,1.1c0.7,1.1,0.4,3-0.7,3.7c-6.3,3.7-11.1,12.9-11.1,20.3l0,0c0,9.2,5.2,18.8,15.9,28.4c1.1,1.1,1.1,2.6,0.4,3.7
	c-0.4,0.7-1.5,0.7-2.2,0.7s-1.1-0.4-1.8-0.7C20.7,59,14.8,47.9,14.8,36.9l0,0c0-9.6,5.9-20.3,13.3-25.1
	C28.8,12.2,29.5,12.2,29.9,12.2z M114.7,12.2c0.4,0,1.1,0,1.5,0.4c7.7,4.8,13.3,15.5,13.3,25.1l0,0c0,11.1-5.9,21.8-17.7,32.5
	c-0.4,0.4-1.1,0.7-1.8,0.7c-0.7,0-1.5-0.4-2.2-0.7c-1.1-1.1-0.7-3,0.4-3.7c10.7-9.2,15.9-18.8,15.9-28.4l0,0
	c0-7.7-4.8-16.6-11.1-20.3c-1.1-0.7-1.5-2.6-0.7-3.7C112.8,12.5,113.6,12.2,114.7,12.2z M49.8,18.8c1.1,0,2.2,0.4,2.6,1.5
	c0.7,1.5,0.4,3-1.1,3.7c-5.5,3-8.9,8.5-8.9,14.8c0,6.6,4.4,13.6,10.7,17c1.5,0.7,1.8,2.2,1.1,3.7c-0.4,0.7-1.5,1.5-2.2,1.5
	c-0.4,0-0.7,0-1.5-0.4c-8.1-4.4-13.3-13.3-13.3-21.8l0,0c0-8.1,4.4-15.5,11.8-19.5C49,19.2,49.4,19.2,49.8,18.8z M94.8,18.8
	c0.4,0,0.7,0,1.1,0.4c7.4,3.7,11.8,11.4,11.8,19.5l0,0c0,8.5-5.5,17.3-13.3,21.8c-0.4,0.4-0.7,0.4-1.5,0.4c-1.1,0-1.8-0.4-2.2-1.5
	c-0.7-1.5-0.4-3,1.1-3.7c6.3-3.7,10.7-10.3,10.7-17c0-6.3-3.3-11.8-8.9-14.8c-1.5-0.7-1.8-2.2-1.1-3.7
	C92.6,19.5,93.7,18.8,94.8,18.8z M72.3,28.8c6.6,0,11.8,5.2,11.8,11.8s-5.2,11.8-11.8,11.8c-6.6,0-11.8-5.2-11.8-11.8
	S65.6,28.8,72.3,28.8z"/>
</svg>
